# xmcd
#
# Track frame offsets:
#	150
#	22117
#	41002
#	58502
#	70604
#	89889
#	105528
#	122694
#	140865
#	159762
#	179498
#	197151
#	215548
#	232853
#	250510
#	269706
#	284893
#	300896
#	320016
#	330432
#
# Disc length: 4636 seconds
#
# Revision: 0
# Processed by: cddbd v1.5.2PL0 Copyright (c) Steve Scherf et al.
# Submitted via: EasyCDDAExtractor 15.3.0.1
#
DISCID=2a121a14
DTITLE=Noelia - Greatest Hits
DYEAR=2005
DGENRE=Latin
TTITLE0=Tu
TTITLE1=Golpeando Fuerte
TTITLE2=Y Se Ira
TTITLE3=Melao
TTITLE4=Toco La Luz
TTITLE5=Clavame Tu Amor (Cumbia)
TTITLE6=Con El Alma Abierta
TTITLE7=Te Odio
TTITLE8=Ya No Eres El Mismo
TTITLE9=Tan Cerca Y Tan Lejos
TTITLE10=Candela
TTITLE11=Me Faltas Tu
TTITLE12=Perdoname
TTITLE13=Clavame Tu Amor (Balada)
TTITLE14=Te Amo
TTITLE15=El Suspiro De Un Angel
TTITLE16=Desnudame
TTITLE17=Morir De Amor
TTITLE18=No Demores
TTITLE19=Tuya Completa
EXTD=
EXTT0=
EXTT1=
EXTT2=
EXTT3=
EXTT4=
EXTT5=
EXTT6=
EXTT7=
EXTT8=
EXTT9=
EXTT10=
EXTT11=
EXTT12=
EXTT13=
EXTT14=
EXTT15=
EXTT16=
EXTT17=
EXTT18=
EXTT19=
PLAYORDER=
